# vertices
v 64 -48 -16
v 64 -163 -16
v 64 -163 -1
v 64 -48 -1
v 169 -163 -1
v 169 -48 -1
v 169 -163 -16
v 169 -48 -16

# texture coordinates
vt 16 48
vt 16 163
vt 1 163
vt 1 48
vt 169 163
vt 169 48
vt 64 48
vt 64 163
vt 169 -16
vt 169 -1
vt 64 -1
vt 64 -16

# face normals
vn -1 0 -0
vn -0 0 1
vn 0 -1 0
vn 0 1 -0
vn 0 0 -1
vn 1 -0 -0

# objects
o entity1_brush0
f 1/1/1 2/2/1 3/3/1 4/4/1
f 5/5/2 6/6/2 4/7/2 3/8/2
f 7/9/3 5/10/3 3/11/3 2/12/3
f 6/10/4 8/9/4 1/12/4 4/11/4
f 8/6/5 7/5/5 2/8/5 1/7/5
f 8/1/6 6/4/6 5/3/6 7/2/6

